:SAMPLES-PER-SECOND 30
:FULLY-SPECIFIED
:DEGREES
379
root  16.2302 39.3584 7.35333 -82.8116 -79.7985 85.6685
RightUpLeg  -37.7137 -10.1425 -8.90402
RightLeg  31.4716 -16.9109 -11.0725
RightFoot  -16.9071 0.447021 11.5388
RightToes  1.16414e-010 0 -3.6325e-017
Spine  33.9643 0.757819 8.92479
Spine1  5.67827 5.12847 -5.18723
HEad  -15.5236 3.01942 -15.0214
LeftShoulder1  -0.433555 -7.47314 13.9585
LeftArm  44.1095 -53.2112 -72.0163
LeftForeArm  41.3843 -49.3468 -9.94988
LeftHand  -2.75798 21.9266 -17.5481
RightShoulder  2.33939 7.22376 15.0631
RightArm  -12.3858 11.8187 48.7243
RightForeArm  -26.5102 0.755733 12.4796
RightHand  -1.24534 2.66159 -18.3519
LeftUpLeg  -9.41876 -18.2282 5.67702
LeftLeg  29.918 11.8916 7.65914
LeftFoot  14.9246 5.17967 -22.8279
LeftToes  7.09373e-011 9.9627e-011 8.96859e-012
380
root  16.4235 37.3789 7.50876 -106.506 -78.4521 108.35
RightUpLeg  -41.8234 -8.942 -10.7439
RightLeg  35.4291 -15.5847 -11.8519
RightFoot  -15.3887 0.277457 10.7393
RightToes  1.16414e-010 0 -3.6325e-017
Spine  36.5086 1.57309 7.51815
Spine1  9.31073 4.77377 0.192944
HEad  -13.8575 10.7564 -4.40213
LeftShoulder1  0.443437 -5.81407 4.36103
LeftArm  52.0098 -37.3714 -71.9215
LeftForeArm  37.1889 -41.8772 -7.55203
LeftHand  -2.91423 22.2274 -18.25
RightShoulder  2.21212 7.53797 13.4077
RightArm  -15.5722 33.3797 46.3224
RightForeArm  -43.1571 10.3945 9.36679
RightHand  -1.92797 5.77971 -20.2251
LeftUpLeg  -7.30732 -17.0197 3.78204
LeftLeg  36.1489 12.2881 9.79266
LeftFoot  -2.89592 2.47877 -31.4343
LeftToes  7.09373e-011 9.9627e-011 8.96859e-012
381
root  16.5922 35.6858 7.31314 -121.645 -77.9341 120.849
RightUpLeg  -43.9405 -9.81937 -9.21222
RightLeg  41.8547 -14.9767 -14.1877
RightFoot  -12.3732 0.000519792 8.99066
RightToes  1.16414e-010 0 -3.6325e-017
Spine  43.1779 1.56164 9.1776
Spine1  11.921 4.52544 5.86876
HEad  -18.359 14.1204 3.74533
LeftShoulder1  1.2999 -6.07642 -5.76794
LeftArm  52.3926 -21.2913 -62.7764
LeftForeArm  34.8949 -38.2236 -6.65461
LeftHand  -2.71598 20.8341 -18.4797
RightShoulder  1.36303 5.3882 5.73389
RightArm  -23.986 55.3776 46.3352
RightForeArm  -49.3817 20.144 6.94482
RightHand  -1.40352 2.54701 -20.5668
LeftUpLeg  -3.45362 -13.1545 5.22615
LeftLeg  39.2073 7.96104 7.28524
LeftFoot  -18.2714 -1.8681 -32.4497
LeftToes  7.09373e-011 9.9627e-011 8.96859e-012
382
root  16.7891 34.3953 6.60523 -126.004 -77.625 125.132
RightUpLeg  -48.3751 -12.3533 -5.98336
RightLeg  47.7359 -14.0736 -16.2805
RightFoot  -9.41286 -0.173063 6.42734
RightToes  1.16414e-010 0 -3.6325e-017
Spine  50.4994 1.18351 12.6263
Spine1  12.1691 6.01406 8.74539
HEad  -29.1892 10.1763 8.76329
LeftShoulder1  2.07387 -6.56597 -13.6545
LeftArm  54.2473 -7.44378 -55.367
LeftForeArm  32.9668 -35.374 -6.02203
LeftHand  -1.64698 19.529 -11.9155
RightShoulder  -0.0653899 -2.90975 -7.21295
RightArm  -37.6344 71.3349 51.1344
RightForeArm  -45.9814 26.9562 7.55535
RightHand  -1.44011 2.35353 -21.6758
LeftUpLeg  -3.70549 -9.041 9.05709
LeftLeg  41.131 1.61841 1.89166
LeftFoot  -25.9196 -4.02433 -31.8584
LeftToes  7.09373e-011 9.9627e-011 8.96859e-012
383
root  16.9359 33.523 5.39633 -122.301 -78.1278 123.882
RightUpLeg  -54.1156 -13.6981 -1.9298
RightLeg  51.4996 -13.5507 -17.8707
RightFoot  -8.00146 -0.157737 3.47661
RightToes  1.16414e-010 0 -3.6325e-017
Spine  56.7363 0.632834 16.6721
Spine1  9.7251 9.01718 8.83565
HEad  -40.1389 -0.441049 12.353
LeftShoulder1  2.5444 -7.25355 -16.9982
LeftArm  58.8945 2.6815 -51.2437
LeftForeArm  26.8217 -30.5651 -5.17792
LeftHand  -0.497307 18.7071 -3.39028
RightShoulder  -0.00175206 -4.19636 -9.8882
RightArm  -112.377 75.8156 -23.0293
RightForeArm  -44.968 27.3532 7.89177
RightHand  -1.91535 6.30957 -19.104
LeftUpLeg  -8.40965 -5.78332 13.6891
LeftLeg  44.3852 -2.08411 -1.76144
LeftFoot  -25.4565 -3.99626 -32.7045
LeftToes  7.09373e-011 9.9627e-011 8.96859e-012
384
root  16.9809 32.8287 3.8481 -113.199 -77.8699 118.744
RightUpLeg  -60.421 -12.3494 0.668318
RightLeg  54.5735 -13.9018 -20.3264
RightFoot  -7.88734 -0.062044 0.221064
RightToes  1.16414e-010 0 -3.6325e-017
Spine  60.0659 1.70449 17.8618
Spine1  5.9229 11.8745 8.61445
HEad  -45.5656 -14.1242 15.4171
LeftShoulder1  2.82824 -8.63043 -16.6349
LeftArm  62.6526 11.5722 -49.2859
LeftForeArm  18.417 -26.3443 -4.66891
LeftHand  -0.427603 17.8276 -2.9447
RightShoulder  0.00371598 -3.80485 -9.77637
RightArm  -131.521 61.8307 -48.7118
RightForeArm  -49.8654 23.3261 5.76217
RightHand  -1.2778 6.2448 -12.9061
LeftUpLeg  -16.4713 -2.92094 16.0906
LeftLeg  50.5636 0.809591 1.72083
LeftFoot  -21.1766 -2.49079 -29.3845
LeftToes  7.09373e-011 9.9627e-011 8.96859e-012
385
root  16.8828 32.2689 2.26038 -102.305 -77.1153 110.944
RightUpLeg  -65.0104 -10.8139 1.94786
RightLeg  57.5021 -14.5983 -23.4898
RightFoot  -8.55934 0.018165 -3.1823
RightToes  1.16414e-010 0 -3.6325e-017
Spine  60.8573 3.10659 16.8639
Spine1  3.75777 12.7437 9.3469
HEad  -44.2703 -22.3952 17.8478
LeftShoulder1  2.97807 -10.0768 -15.0951
LeftArm  63.3884 20.5204 -48.2178
LeftForeArm  13.2123 -24.637 -4.56821
LeftHand  -1.02207 16.5192 -9.34663
RightShoulder  1.7534e-005 -3.84491 -8.82482
RightArm  -124.942 52.0223 -59.036
RightForeArm  -67.7196 17.476 -2.08395
RightHand  -0.834607 3.52228 -11.161
LeftUpLeg  -25.0836 -0.462654 15.2119
LeftLeg  60.2111 5.62821 11.2612
LeftFoot  -18.0133 -1.02433 -19.5935
LeftToes  7.09373e-011 9.9627e-011 8.96859e-012
386
root  16.6691 31.8728 0.814385 -94.9658 -76.8685 105.162
RightUpLeg  -67.2367 -9.91797 3.7883
RightLeg  59.5515 -14.9031 -25.7182
RightFoot  -9.53349 0.0291885 -5.87229
RightToes  1.16414e-010 0 -3.6325e-017
Spine  60.341 3.40864 15.6738
Spine1  4.09851 12.0146 10.0287
HEad  -39.5766 -22.4754 20.0672
LeftShoulder1  2.97095 -10.57 -14.1963
LeftArm  63.7514 28.425 -47.5961
LeftForeArm  11.7449 -23.89 -4.52141
LeftHand  -1.10945 15.0153 -11.8143
RightShoulder  -0.0083939 -4.40174 -8.2371
RightArm  -112.953 46.5769 -64.6589
RightForeArm  -88.1059 9.46504 -9.78636
RightHand  -0.914764 2.24038 -14.1127
LeftUpLeg  -32.4265 3.19301 11.5498
LeftLeg  71.9085 5.35958 18.4534
LeftFoot  -18.4761 -0.669575 -12.5234
LeftToes  7.09373e-011 9.9627e-011 8.96859e-012
387
root  16.3692 31.5845 -0.462075 -91.8439 -77.643 103.36
RightUpLeg  -68.4396 -8.8441 6.77294
RightLeg  60.4377 -14.8951 -26.5573
RightFoot  -10.301 -7.25411e-005 -7.53263
RightToes  1.16414e-010 0 -3.6325e-017
Spine  58.9094 3.13603 14.9765
Spine1  4.93038 11.0171 10.0682
HEad  -36.7755 -21.3674 21.9381
LeftShoulder1  2.86158 -10.2274 -13.9071
LeftArm  63.4503 34.9876 -48.2593
LeftForeArm  10.999 -22.2853 -5.07587
LeftHand  -1.04138 14.7472 -11.4044
RightShoulder  -0.0200046 -5.14046 -8.08002
RightArm  -109.757 43.864 -65.6331
RightForeArm  -98.645 3.65396 -12.7887
RightHand  -0.712847 -0.0470257 -15.4603
LeftUpLeg  -38.6809 8.99449 4.99246
LeftLeg  83.0924 1.36413 17.1932
LeftFoot  -20.9975 -1.01692 -13.3971
LeftToes  7.09373e-011 9.9627e-011 8.96859e-012
388
root  16.0585 31.3597 -1.65745 -90.4609 -79.3313 103.54
RightUpLeg  -69.2208 -7.65313 10.7782
RightLeg  60.5222 -15.3119 -27.2477
RightFoot  -10.9788 -0.0460458 -9.09871
RightToes  1.16414e-010 0 -3.6325e-017
Spine  57.0658 3.12178 14.7743
Spine1  4.50374 10.31 10.9924
HEad  -38.7273 -26.644 23.1764
LeftShoulder1  2.86231 -10.1101 -14.1073
LeftArm  58.8107 40.5966 -50.4813
LeftForeArm  11.722 -20.1687 -7.03263
LeftHand  -1.10835 14.9206 -11.9522
RightShoulder  -0.0293414 -5.75645 -8.03541
RightArm  -110.043 43.1325 -63.8315
RightForeArm  -101.051 2.18093 -14.0677
RightHand  -0.681975 -0.638292 -16.5953
LeftUpLeg  -44.2055 15.4666 -4.72475
LeftLeg  91.6293 -0.978843 10.8219
LeftFoot  -22.15 -1.41495 -16.2716
LeftToes  7.09373e-011 9.9627e-011 8.96859e-012
389
root  15.8037 31.2704 -2.92534 -87.6533 -81.2047 102.292
RightUpLeg  -69.3098 -7.08541 15.4782
RightLeg  59.501 -16.1812 -27.4893
RightFoot  -12.1266 -0.158797 -11.0911
RightToes  1.16414e-010 0 -3.6325e-017
Spine  55.195 3.54826 14.8234
Spine1  3.70614 9.57668 13.6997
HEad  -40.5515 -30.5545 23.4513
LeftShoulder1  3.09637 -10.525 -15.252
LeftArm  54.6863 44.6738 -53.1908
LeftForeArm  10.1593 -19.3414 -8.04258
LeftHand  -1.33222 15.0448 -14.3378
RightShoulder  -0.0287562 -6.24658 -8.34243
RightArm  -110.144 43.1299 -61.1238
RightForeArm  -99.6122 2.93216 -14.2456
RightHand  -0.741187 -0.478629 -17.4789
LeftUpLeg  -49.0772 21.3433 -17.351
LeftLeg  94.8907 -0.793383 3.87495
LeftFoot  -21.3232 -1.42376 -17.5897
LeftToes  7.09373e-011 9.9627e-011 8.96859e-012
390
root  15.5618 31.3525 -4.29839 -82.5728 -82.9628 98.5462
RightUpLeg  -68.406 -6.87093 20.2186
RightLeg  57.056 -16.7549 -25.9893
RightFoot  -13.1403 -0.286402 -12.5609
RightToes  1.16414e-010 0 -3.6325e-017
Spine  52.7238 3.95359 15.2056
Spine1  3.35394 8.80633 16.6542
HEad  -42.1262 -33.7162 23.1861
LeftShoulder1  3.32545 -10.7667 -16.6028
LeftArm  54.2483 46.5486 -55.57
LeftForeArm  6.06626 -20.3144 -7.17333
LeftHand  -1.6045 15.2676 -17.0238
RightShoulder  -0.015715 -6.61358 -8.9766
RightArm  -106.975 43.1474 -57.915
RightForeArm  -99.0343 3.01441 -13.9838
RightHand  -0.743512 0.00273952 -16.0483
LeftUpLeg  -52.4701 26.7229 -30.4476
LeftLeg  91.2538 -0.122814 -3.98643
LeftFoot  -17.2732 -0.98525 -21.7236
LeftToes  7.09373e-011 9.9627e-011 8.96859e-012
391
root  15.3002 31.4786 -5.75796 -74.5958 -84.6326 91.5208
RightUpLeg  -67.1021 -6.41977 24.532
RightLeg  54.44 -17.0268 -24.0912
RightFoot  -12.3685 -0.204914 -13.6671
RightToes  1.16414e-010 0 -3.6325e-017
Spine  49.8273 4.15423 15.5956
Spine1  2.8366 8.30785 18.7857
HEad  -42.8446 -36.515 22.6683
LeftShoulder1  3.31956 -10.5127 -17.0119
LeftArm  53.5117 46.9593 -57.4672
LeftForeArm  3.67358 -21.9014 -5.71228
LeftHand  -1.81887 15.3452 -19.2399
RightShoulder  -0.00224883 -6.77879 -9.47576
RightArm  -102.316 43.4161 -53.5899
RightForeArm  -99.0148 2.60521 -13.6335
RightHand  -0.712459 1.23828 -12.617
LeftUpLeg  -53.4455 30.6972 -40.226
LeftLeg  81.9986 -1.23586 -9.35575
LeftFoot  -10.1449 0.326391 -27.7936
LeftToes  7.09373e-011 9.9627e-011 8.96859e-012
392
root  15.0494 31.6406 -7.36456 -59.0502 -85.5592 76.0442
RightUpLeg  -66.1402 -6.68732 28.386
RightLeg  53.2058 -17.3583 -23.5219
RightFoot  -9.01393 0.280223 -15.822
RightToes  1.16414e-010 0 -3.6325e-017
Spine  47.3627 4.21273 15.0118
Spine1  1.81439 7.89848 21.0989
HEad  -42.7422 -38.3858 22.0284
LeftShoulder1  3.23945 -10.2709 -16.834
LeftArm  50.7558 46.5186 -58.361
LeftForeArm  3.60773 -23.3516 -4.89465
LeftHand  -1.87453 14.789 -21.0281
RightShoulder  0.00461265 -6.76828 -9.70859
RightArm  -99.1096 43.9221 -47.8632
RightForeArm  -97.7863 3.04674 -13.406
RightHand  -0.683485 2.09894 -10.7546
LeftUpLeg  -51.0908 31.6482 -43.8112
LeftLeg  71.673 -3.57396 -11.0474
LeftFoot  -6.59048 1.13608 -26.2459
LeftToes  7.09373e-011 9.9627e-011 8.96859e-012
393
root  14.8811 31.8021 -9.26926 -41.6275 -84.8481 57.358
RightUpLeg  -65.9998 -8.66668 31.6712
RightLeg  53.7323 -15.4627 -21.6416
RightFoot  -2.52232 1.38229 -17.576
RightToes  1.16414e-010 0 -3.6325e-017
Spine  45.8646 4.08156 13.1547
Spine1  1.61242 6.8631 23.7633
HEad  -42.7543 -38.6613 22.1345
LeftShoulder1  3.24432 -10.3199 -16.7817
LeftArm  48.6195 44.4105 -57.4049
LeftForeArm  3.64087 -24.3093 -4.99354
LeftHand  -1.83903 13.9594 -22.6056
RightShoulder  0.00790837 -6.70175 -9.83875
RightArm  -96.8067 43.7793 -40.7987
RightForeArm  -94.769 4.19955 -13.3429
RightHand  -0.627069 1.66542 -10.4557
LeftUpLeg  -45.8273 29.8153 -41.8164
LeftLeg  64.6726 -5.43476 -11.7254
LeftFoot  -11.5957 0.167533 -13.91
LeftToes  7.09373e-011 9.9627e-011 8.96859e-012
